<svg xmlns="http://www.w3.org/2000/svg" viewBox="0 0 200 200">
  <defs>
    <style>
      .cls-1 {
        isolation: isolate;
      }

      .cls-2 {
        fill: #17c67b;
      }

      .cls-3 {
        fill: #acbcb3;
        mix-blend-mode: multiply;
      }

      .cls-4, .cls-8 {
        fill: #fff;
      }

      .cls-4 {
        mix-blend-mode: overlay;
      }

      .cls-5 {
        fill: #7c6c6e;
      }

      .cls-6 {
        fill: #4a5e6d;
      }

      .cls-7 {
        fill: #ffdc0b;
      }

      .cls-9 {
        fill: #333;
      }
    </style>
  </defs>
  <title>home-image</title>
  <g class="cls-1">
    <g id="lhand">
      <g id="lhand-2" data-name="lhand">
        <path id="_Path_" data-name="&lt;Path&gt;" class="cls-2" d="M24.38,119.36c-8,5.67-14.34,13.84-17,23.26a3.43,3.43,0,0,0,0,2.46,2.52,2.52,0,0,0,3.08.9,9.62,9.62,0,0,0,2.85-2c4.91-4.21,11.55-5.88,18-6.23s12.91.5,19.38.7a8.15,8.15,0,0,0,4.43-.74,7.82,7.82,0,0,0,2.53-2.9c4.45-7.46,6.59-22-4.41-25.1C44.41,107.2,31.19,114.52,24.38,119.36Z"/>
        <path id="_Path_2" data-name="&lt;Path&gt;" class="cls-3" d="M45.25,136.69A1.74,1.74,0,0,0,47.42,135c0-.66-.08-1.32-.11-2a1.8,1.8,0,0,0,0-2.39l-.15-.17c0-1-.08-2-.11-3a1.47,1.47,0,0,0-1.46-1.46c-12.82,1.3-27.29,7.56-34,19.08a.22.22,0,0,0,.34.26,106.21,106.21,0,0,1,8.47-6.85,1.43,1.43,0,0,0,1.54.25A39.35,39.35,0,0,1,45.25,136.69Z"/>
        <path id="_Path_3" data-name="&lt;Path&gt;" class="cls-4" d="M43.32,111.56a.59.59,0,0,0-.3-1.1c-3.67-.4-7.78,1.92-11,3.61a50.49,50.49,0,0,0-11,7.89C15.29,127.45,9.64,135,8.59,143.15c-.05.39.54.5.72.19,4-7.14,7.3-14,13.4-19.78a48.22,48.22,0,0,1,9.89-7.19C36,114.52,40.25,113.81,43.32,111.56Z"/>
      </g>
    </g>
    <g id="rhand">
      <g id="rhand-2" data-name="rhand">
        <path id="_Path_4" data-name="&lt;Path&gt;" class="cls-2" d="M176.9,115.88a42.41,42.41,0,0,1,6.85,7.44,60.43,60.43,0,0,1,9.07,17,2.33,2.33,0,0,1,.11,1.66,2,2,0,0,1-1.22.93c-2.38.8-5-.22-7-1.76s-3.53-3.57-5.41-5.23c-4-3.52-9.33-5.21-14.62-5.78s-10.64-.12-16,.13a11.53,11.53,0,0,1-5.84-.77c-8.33-4.27-3.16-20.23,4.25-22.81C155.73,103.72,170.47,110.58,176.9,115.88Z"/>
        <path id="_Path_5" data-name="&lt;Path&gt;" class="cls-3" d="M178.11,131.43c-.45-.55-.92-1.11-1.42-1.67a1.44,1.44,0,0,0,.16-1.84c-2.71-3.94-7.36-7.93-12.25-6.26a11.17,11.17,0,0,0-7.7,1.3.73.73,0,0,0-.19,1.13h-.11a1.39,1.39,0,0,0-1.19,1.59,3.13,3.13,0,0,0-.42,2.08c.26,2.29,2.59,3.15,4.61,3,2.8-.24,5.3-1.07,8.17-.68a15.27,15.27,0,0,1,8,3.69A1.65,1.65,0,0,0,178.11,131.43Z"/>
        <path id="_Path_6" data-name="&lt;Path&gt;" class="cls-4" d="M193.35,141.95a55.11,55.11,0,0,0-13.23-23.63c-5-5.17-13-10.62-20.51-9.37-.85.14-.75,1.41,0,1.62,3.9,1.06,7.55,1.54,11.17,3.52a33.57,33.57,0,0,1,9.19,7.64c5.35,6.22,7.93,13.93,12.5,20.6A.48.48,0,0,0,193.35,141.95Z"/>
      </g>
    </g>
    <g id="body">
      <g id="body-2" data-name="body">
        <path id="_Path_7" data-name="&lt;Path&gt;" class="cls-2" d="M149.19,139c4.43-.51,8.95-1,13.34-.23s8.73,3.09,10.93,7c3,5.38,1.3,12.12-.89,17.9a141.55,141.55,0,0,1-9.11,19.46,41.09,41.09,0,0,1,11.47,6c-2,2.13-5.14,2.79-8,3.24a109.19,109.19,0,0,1-37.8-.88c-1.5-.3-3.17-.75-4-2.06a5.63,5.63,0,0,1-.39-3.59,119.85,119.85,0,0,1,6.91-28.22c1.72-4.55,3.53-9.68,6.22-13.76C141,139.07,143.41,139.66,149.19,139Z"/>
        <path id="_Path_8" data-name="&lt;Path&gt;" class="cls-2" d="M29.83,147.79a12.54,12.54,0,0,0-3.29,2.73c-3.19,4.08-1.23,10,1.1,14.65a149.26,149.26,0,0,0,11.7,19.49A32.44,32.44,0,0,0,30,190.54a1.58,1.58,0,0,0-.65,1c0,.71.8,1.09,1.48,1.27a77,77,0,0,0,31.8,1.7c2.11-.33,4.42-.88,5.67-2.61,1.4-1.94.94-4.61.43-6.94l-5.53-25.2c-1.47-6.68-2.8-16.54-10.65-18.53C45.35,139.42,35.65,144.13,29.83,147.79Z"/>
        <path id="_Path_9" data-name="&lt;Path&gt;" class="cls-5" d="M46.62,138.84C46,144.54,45.17,150.3,46,156c1.83,12.48,11.92,22.61,23.57,27.46s24.66,5.2,37.25,4.37c8.66-.57,17.54-1.75,25.1-6,12.32-6.94,19.08-21,21.64-34.9s1.7-28.19,2.8-42.29a570.49,570.49,0,0,0-62.07-2.92c-10.46.08-21,.33-31.38,1.09-5.46.4-12.33.56-14.9,6.3-1.76,3.93-.53,9.49-.55,13.63Q47.44,130.79,46.62,138.84Z"/>
        <path id="_Path_10" data-name="&lt;Path&gt;" class="cls-3" d="M41.1,185.33A11.1,11.1,0,0,1,48,184c2.57.26,5.1.7,7.69.77a.64.64,0,0,0,.17-1.24c-3.33-1.12-7.34-2.43-10.87-2.57-2.37-.09-4.8.61-5.69,2.94C38.87,185,40.24,185.75,41.1,185.33Z"/>
        <path id="_Path_11" data-name="&lt;Path&gt;" class="cls-3" d="M171,142.71a22.68,22.68,0,0,0-14-4.89,1.63,1.63,0,0,0-1.44.82,35.2,35.2,0,0,0-2.86,10,1.25,1.25,0,0,0,.35,1.13,15.27,15.27,0,0,0-1.41,4.44.5.5,0,0,0,1,.26,14.94,14.94,0,0,1,2.27-4.41,1.72,1.72,0,0,0,.86-.6c.41-.57.83-1.14,1.27-1.7a12.79,12.79,0,0,1,12.44-2.51C170.92,145.73,172.23,143.68,171,142.71Z"/>
        <path id="_Compound_Path_" data-name="&lt;Compound Path&gt;" class="cls-3" d="M151.09,158.32c-.34.55-.67,1.09-1,1.64a1.47,1.47,0,0,0-1.75-.32c-9.08,4.67-17.2,10-27.16,12.83a72.72,72.72,0,0,1-30.64,2.4C73,172.31,57.78,162.51,47.08,148.64c0-1.86-.12-3.72-.19-5.58,0-.82-.88-1.7-1.77-1.35-3.25,1.29-6.56,2.44-9.85,3.64a1.54,1.54,0,0,0-1,1.12,17.44,17.44,0,0,0-6.93,3.38c-.37.3.11.91.51.66a15,15,0,0,1,7.45-2.25,1.74,1.74,0,0,0,.82.05l.36,0a16.12,16.12,0,0,1,8.48,2.87,1.36,1.36,0,0,0,1.73-.22l.19.34a.71.71,0,0,0-.44.6A25.24,25.24,0,0,0,49,164.91a1.55,1.55,0,0,0-.48.13c-3.7,1.67-6.49,3.64-10.77,3.35-4.9-.34-8.84-3.05-11.75-6.9-.08-.11-.31-.05-.25.1,2.75,6.81,11.94,11.52,19,9.15,7,3.1,15.49,9.32,17.18,16.4.94,3.93-2.14,3.72-5.24,3.89a69.71,69.71,0,0,1-7.74,0c-5.18-.3-10.14-1.81-15.26-2.23a1.44,1.44,0,0,0-.72,2.66c6.67,3.14,15.65,3.31,22.87,2.9,3-.17,8.36,0,10-3A1.74,1.74,0,0,0,68,189.94a10,10,0,0,0-1-6c-.63-1.37-1.57-3.05-3.08-3.31h-.22c-.11-.06-.21-.14-.32-.19a.51.51,0,0,0-.61.17,36.31,36.31,0,0,0-5-5.43l-.39-.33a48.34,48.34,0,0,0,11.55,6.56.49.49,0,0,0,.22.22,57.36,57.36,0,0,0,21.18,5.89c4.66.34,10.9.55,16.1-.85,16.08-.86,32.45-5.82,39.32-21.24l0-.06q1.18-.84,2.29-1.74c-.95,1.78-1.82,3.59-2.6,5.43a1.08,1.08,0,0,0-.68.38c-5.48,6.43-11.7,13.12-20,15.66a1.67,1.67,0,0,0-.39,3,41.41,41.41,0,0,0,19,4.67,1.59,1.59,0,0,0,1.51-2c-1.85-11.32,3.16-21.81,6.88-32.19C151.94,158.2,151.31,158,151.09,158.32Zm-29.34,19.73q-1.4.35-2.82.63c1.11-.25,2.22-.54,3.32-.84ZM44.12,145.18l-.17,0,.17-.07Zm4.31,8.66-.21,0-.12-.53ZM51.34,171a1.26,1.26,0,0,0,.21-.42,1.34,1.34,0,0,0-.62-1.51l-.32-.13h0l-.5-.2a1.53,1.53,0,0,0-.22-.26l-.66-.64c.26-.28.52-.57.76-.88a1.45,1.45,0,0,0,.08-.14,30.2,30.2,0,0,0,6.45,7.31A23.86,23.86,0,0,0,51.34,171Zm78.35,15.87-.29-.12.21-.1A1.71,1.71,0,0,0,129.69,186.89Zm13.18-10.35,0-.08.06-.07Z"/>
        <path id="_Path_12" data-name="&lt;Path&gt;" class="cls-3" d="M163.77,180.38a17.57,17.57,0,0,0-2.77,1,6.14,6.14,0,0,0-2.11,1.13.5.5,0,0,0,.22.83,6.15,6.15,0,0,0,2.41-.09,17.51,17.51,0,0,0,2.88-.57A1.18,1.18,0,0,0,163.77,180.38Z"/>
        <path id="_Compound_Path_2" data-name="&lt;Compound Path&gt;" class="cls-4" d="M66,137.51a46.06,46.06,0,0,1-17.22-12.36c-.65-.75-1.66.08-1.51.88a36.93,36.93,0,0,1,.49,4l-.05.29a.94.94,0,0,0,.1.63c.09,1.76.08,3.52,0,5.28-.75,8.22-3.58,16.16-.63,24.55a29.52,29.52,0,0,0,15.36,16.9c.64.4,1.28.79,1.94,1.14s2-.29,1.61-1.24a54.83,54.83,0,0,1-.06-37.85l.4-.51A1.07,1.07,0,0,0,66,137.51Zm-2.43,6.68a.74.74,0,0,0-.11-.25q.24-.49.51-1C63.84,143.37,63.71,143.78,63.58,144.18Z"/>
        <path id="_Path_13" data-name="&lt;Path&gt;" class="cls-4" d="M150.74,152.77c4.57-10,5.33-23.07,5-33.92a.77.77,0,0,0-1.51-.2q-.56,2-1.12,4.08c-.11-.45-.24-.9-.39-1.33a.27.27,0,0,0-.51,0c-1,4.18-.59,8.79-1.05,13.07a96.35,96.35,0,0,1-3,15.66,91,91,0,0,1-5.32,14.16c-2.2,4.66-5.3,8.89-7.33,13.6a.58.58,0,0,0,.91.7c6.83-6.31,10.87-17.1,13.51-26C150,153,150.57,153.15,150.74,152.77Z"/>
        <path id="_Path_14" data-name="&lt;Path&gt;" class="cls-4" d="M170,144.94c.17.37.31.73.46,1.1a.68.68,0,0,0-.25.69c.06.38.11.74.15,1.11a3.85,3.85,0,0,0-3.35,0c-2.79,1.27-3.69,4.92-3.3,7.73.36,2.56,2.29,4.62,5,4a4.88,4.88,0,0,0,2.91-1.8,34.46,34.46,0,0,1-2.93,9.08c-2.09,4.45-6.53,9.6-6.56,14.6a.57.57,0,0,0,1,.4c2.7-2.54,4.13-6.82,5.84-10.09a52.07,52.07,0,0,0,4.26-10c1.66-5.9,1.56-12.52-2.62-17.35C170.26,144.13,169.8,144.58,170,144.94Z"/>
        <path id="_Compound_Path_3" data-name="&lt;Compound Path&gt;" class="cls-4" d="M40.57,184.65c.85,1,2.35-.28,1.77-1.36A133.18,133.18,0,0,0,33.49,170a.84.84,0,0,0,.06-.8c-1.23-2.5-2.86-4.56-3.87-7.16a3.72,3.72,0,0,0,2.81,1.5c3.14.25,5.18-3,5-5.83a5.62,5.62,0,0,0-9.11-4,13.7,13.7,0,0,1,.76-1.28,20.09,20.09,0,0,1,2-2,.71.71,0,0,0,.25-.61,53.44,53.44,0,0,1,5-4.13.89.89,0,0,0-.89-1.53,17,17,0,0,0-5.69,4.67l-.58.58a5,5,0,0,0-1.29.88c-4.32,1.67-4.5,7.2-2.83,11.1,1.77,4.12,4.75,7.84,7.23,11.55A131.86,131.86,0,0,0,40.57,184.65ZM28.24,155.52c0-.13,0-.26,0-.4a4.55,4.55,0,0,1,.75-.58A3.65,3.65,0,0,0,28.24,155.52Z"/>
        <path id="_Path_15" data-name="&lt;Path&gt;" class="cls-4" d="M58.14,185.13c-8.39-2.3-21.3-.87-27.6,5.78-.49.51,0,1.56.74,1.27,4.18-1.57,7.8-4,12.21-5.15A49.7,49.7,0,0,1,58,185.89.39.39,0,0,0,58.14,185.13Z"/>
        <path id="_Path_16" data-name="&lt;Path&gt;" class="cls-4" d="M149.45,184.32a.33.33,0,0,0,.18.64c7.87-1.87,14.17.74,21.12,4,1,.48,2.24-.82,1.27-1.65C165.88,182.08,156.8,182.14,149.45,184.32Z"/>
      </g>
    </g>
    <g id="head">
      <g id="Head-2" data-name="Head">
        <path id="_Path_17" data-name="&lt;Path&gt;" class="cls-6" d="M139.91,13.35c1.69,5.22.41,10.93-1.43,16.11-.78,2.2-1.73,4.46-3.57,5.9a8.43,8.43,0,0,1-3.23,1.48,10.91,10.91,0,0,1-8.06-1.18C110.27,27.66,133.76,17.12,139.91,13.35Z"/>
        <path id="_Path_18" data-name="&lt;Path&gt;" class="cls-6" d="M77.16,3.47a24.93,24.93,0,0,0-.5,19.16S88.4,29.34,92.06,25Z"/>
        <path id="_Path_19" data-name="&lt;Path&gt;" class="cls-6" d="M109.53,4.71a58.27,58.27,0,0,1,3.95,22.93c-.06,1.81-.33,3.87-1.81,4.92-1.25.89-2.94.74-4.47.55a19,19,0,0,1-6-1.41c-5.68-2.74-3.75-8-1.7-12.63C100.41,17.12,109.83,5.49,109.53,4.71Z"/>
        <path id="_Path_20" data-name="&lt;Path&gt;" class="cls-2" d="M56.36,94.69c-2,.13-3.61-1.51-4.78-3.12a32.58,32.58,0,0,1-5.12-26.86,2.65,2.65,0,0,1-.24-1.54l2.26-12a59.73,59.73,0,0,1,1.85-7.84,8,8,0,0,1,2.46-4c.74-4.18.57-8.24,3.29-11.49a21.51,21.51,0,0,1,3.22-3c4.28-3.39,9-6.45,14.32-7.66,7.07-1.62,10.85,2.22,16.94,3.44,3.88.78,8.69,0,12.68.15,8.27.4,15.79,1.19,23.15,5.29a20.11,20.11,0,0,1,9.37,1,13.88,13.88,0,0,1,5.55,4.51,41.87,41.87,0,0,1,8.58,18.1c1.76,8.67,5.86,16.25,6.42,25.07.1,1.57,2.44,1.9,3.22,3.26a6.45,6.45,0,0,1,.61,3.35,28.6,28.6,0,0,1-8.92,20Z"/>
        <path id="_Path_21" data-name="&lt;Path&gt;" class="cls-7" d="M49.58,32.77a24.28,24.28,0,0,0-6,8.15,24.39,24.39,0,0,0-1.38,9.26A65,65,0,0,0,47.22,75c1.1,2.61,2.54,5.32,5.1,6.53s5.8.54,8.18-1.09a20.85,20.85,0,0,0,5.59-6.51,84.47,84.47,0,0,0,12.48-40.7c.25-6-1.7-15.44-9.51-13.19C61.95,22.08,54.82,27.74,49.58,32.77Z"/>
        <path id="_Path_22" data-name="&lt;Path&gt;" class="cls-7" d="M145,33.49c4.14,1.37,8.08,3.79,10.46,7.44,2.18,3.35,2.89,7.42,3.44,11.37,1.48,10.68,2.11,21.87-1.63,32-.72,1.94-1.92,4.09-4,4.35-2.32.29-4.07-2-5.27-4-6.14-10.28-11.51-21.27-14.1-33-1-4.69-2.89-11.91-1.3-16.63C134.38,29.72,140.92,32.15,145,33.49Z"/>
        <path id="_Path_23" data-name="&lt;Path&gt;" class="cls-2" d="M162.78,92.22c-18.41-13.62-43.15-14.47-66-12.67a374.05,374.05,0,0,0-56.89,8.94c1.34,8.75,1.86,18.42,5.16,26.64,2.65,6.61,6.07,13.17,11.56,17.7,6.72,5.54,15.67,7.38,24.27,8.74,10.87,1.72,21.92,2.95,32.87,1.81s21.87-4.79,30.25-11.91C155,122.16,160,106.31,162.78,92.22Z"/>
        <path id="_Path_24" data-name="&lt;Path&gt;" class="cls-3" d="M84.79,18.42c.3.42.58.85.88,1.28s1.3,0,.91-.53c-2-2.9-4.13-5.72-6.12-8.62a.48.48,0,0,0-.78,0A26.51,26.51,0,0,1,78.06,6c-.07-.29-.49-.16-.44.12a24.22,24.22,0,0,0,6.21,12.5A.58.58,0,0,0,84.79,18.42Z"/>
        <path id="_Path_25" data-name="&lt;Path&gt;" class="cls-3" d="M108.27,21.09a7.44,7.44,0,0,0,2.39-2.56,4.63,4.63,0,0,0,.46,1.55.57.57,0,0,0,.89.11c1.15-1.45.64-3.17.16-4.85a.9.9,0,0,0-.48-.59,15.73,15.73,0,0,0-1.46-7,.42.42,0,0,0-.77.21c.19,2.4.74,5.18.22,7.58a7,7,0,0,1-1.49,1.94.69.69,0,0,0-.18.69h0l-1,1.27C106.39,20.32,107.21,21.79,108.27,21.09Z"/>
        <path id="_Path_26" data-name="&lt;Path&gt;" class="cls-3" d="M135.4,25.72a1.81,1.81,0,0,0,.12.38,1,1,0,0,0,.8.49,1,1,0,0,0,1.69,0,14.44,14.44,0,0,0,2.54-5.76.9.9,0,0,0-.15-.68,17.27,17.27,0,0,0,.88-3.19.36.36,0,0,0-.7-.19,14.63,14.63,0,0,1-1.46,3.2l0,0q-1.93,2.2-3.8,4.43A.87.87,0,0,0,135.4,25.72Z"/>
        <path id="_Compound_Path_4" data-name="&lt;Compound Path&gt;" class="cls-3" d="M46.8,69a6.41,6.41,0,0,0-1.08-.44.34.34,0,0,0-.37.49,8.52,8.52,0,0,0,.86,1.24,9.54,9.54,0,0,0,4.36,8.59l0,.06a1.21,1.21,0,0,0,.82.44l.25.12a1,1,0,0,0,1.39.54,10,10,0,0,0,8.1-1.1c4.49-2.73,6.85-7.78,9.11-12.3a127.46,127.46,0,0,0,7-17.5.39.39,0,0,0-.36-.48c.05-.24.12-.48.17-.71a.45.45,0,0,0-.81-.34C72.25,53.67,69.09,60,63.57,65c-3.38,3.07-7.81,6.18-12.62,4.68s-7.13-6.63-9.58-10.65a.05.05,0,0,0-.1,0A22.72,22.72,0,0,0,46.81,69ZM51,72.23,50.78,72l.7.14Zm4.66,6,0,.06h-.13Z"/>
        <path id="_Compound_Path_5" data-name="&lt;Compound Path&gt;" class="cls-3" d="M97,61.41a.44.44,0,0,0,.1-.8l-.1-.05a.62.62,0,0,0-.14-.48.59.59,0,0,0,0-.53c-1-2.13-3.46-3.64-4.83-5.61a24,24,0,0,1-3.15-7,20.35,20.35,0,0,1,.76-2.16c.07-.16-.18-.29-.29-.17A10.11,10.11,0,0,0,88,55.82C89.56,59,93.31,62.11,97,61.41Zm-7.38-6a9.24,9.24,0,0,1-.91-2.11,16.25,16.25,0,0,0,2.72,4.26A8.15,8.15,0,0,1,89.65,55.37Zm-1.12-5.82h-.1c0-.13,0-.26,0-.39C88.48,49.3,88.5,49.43,88.52,49.55Z"/>
        <path id="_Path_27" data-name="&lt;Path&gt;" class="cls-3" d="M122.95,50.35c-2,3.46-4.16,6.58-7.46,9-.53.38-.4,1.34.36,1.32,3.92-.12,7.62-1.78,8.9-5.77a9,9,0,0,0-3.23-9.76c-.24-.17-.61.18-.42.42a10.3,10.3,0,0,1,2.11,4.55A.86.86,0,0,0,122.95,50.35Z"/>
        <path id="_Path_28" data-name="&lt;Path&gt;" class="cls-3" d="M94.93,25.09a23.82,23.82,0,0,0,6.45,3.52.26.26,0,0,0,.25-.43c-1.76-1.64-3.68-3.08-5.44-4.72-1.29-1.2-2.79-3.34-4.62-3.5a.62.62,0,0,0-.62.62C91.05,22.52,93.47,24,94.93,25.09Z"/>
        <path id="_Path_29" data-name="&lt;Path&gt;" class="cls-3" d="M113.7,32.43c3.93-1.64,7.89-3.52,12-4.77,1.36-.42.42-2.5-.74-1.75-3.59,2.32-7.6,4.14-11.39,6.09C113.28,32.12,113.45,32.54,113.7,32.43Z"/>
        <path id="_Path_30" data-name="&lt;Path&gt;" class="cls-3" d="M142.08,80.21a130.7,130.7,0,0,0-75.92-1.63A38.93,38.93,0,0,0,76.8,63.17c3.26-5.16,5-12.07,6-17.57,1.33-7.41,1.61-15.51-.64-22.77a.3.3,0,0,0-.58.08c.19,7.78.45,15.16-1.3,22.83a66.22,66.22,0,0,1-3.09,10c-1.38,3.45-3.49,6.62-4.64,10.14a.77.77,0,0,0,.17.78c-.3.48-.59,1-.9,1.45-3.42,5.17-7.73,8.65-12.28,12.6l-1.65.57c-.43.16-.26.83.19.7l.28-.08a.87.87,0,0,0,1.21.89,25.72,25.72,0,0,0,4.18-2.32,142.26,142.26,0,0,1,79.6,3.16,1.2,1.2,0,0,0,1.54-.61c1.62,2.43,3.88,3.86,7.25,2.54l.16-.08a1.09,1.09,0,0,0,1.44.83A5.89,5.89,0,0,0,157.23,83a4.82,4.82,0,0,0,.33-2.44,5.46,5.46,0,0,0,.19-.56,1.29,1.29,0,0,0,0-.64,27.4,27.4,0,0,0,1.75-5.69c1.79-4,2.53-8.6,2-11.48a.54.54,0,0,0-1-.13c-1.43,2.77-2.23,5.8-3.59,8.61-.71,1.48-1.63,3.76-2.94,4.83-4.51,3.68-6.79-.42-8.72-3.08-4-5.47-6.57-11.59-10.07-17.31-.21-.34-.88-.24-.82.22.67,5.11,3,10.18,5.49,14.65l.84,1.52a1.22,1.22,0,0,0,0,.8c.41,1.11.82,2.55,1.3,4.08a54.71,54.71,0,0,1-4.14-5.13,49.79,49.79,0,0,1-2.82-4.79,39.3,39.3,0,0,0,3.46,5.21c.7.88,1.82-.24,1.43-1.11-1.8-4.07-4.21-7.85-6-12-1.7-4-3-8.07-4.67-12a47,47,0,0,1,.58-13.28c.06-.3-.38-.43-.47-.13-2.41,9-2.73,17.81.1,26.79C131.7,66.8,135.85,75.71,142.08,80.21Z"/>
        <path id="_Path_31" data-name="&lt;Path&gt;" class="cls-3" d="M49.41,84.6a.76.76,0,0,0,1,0,.85.85,0,0,0,.7.26,8.47,8.47,0,0,0,2-.36l1.13-.21a1,1,0,0,0,0-1.95,11.91,11.91,0,0,1-3.11-1L47.5,77a.73.73,0,0,0-.27-.2,10.83,10.83,0,0,1,0-1.27c0-.53-.73-.59-.89-.12A8.43,8.43,0,0,0,49.41,84.6Z"/>
        <path id="_Path_32" data-name="&lt;Path&gt;" class="cls-3" d="M158.16,82.27c-.42.59-.88,1.18-1.28,1.79a2.14,2.14,0,0,0-.51,1.24,2.34,2.34,0,0,0-.69,1.33,1.48,1.48,0,0,0,2.12.69,1.57,1.57,0,0,0,.71-1.68,19.4,19.4,0,0,0,1.17-2.72C160,82,158.68,81.55,158.16,82.27Z"/>
        <path id="_Compound_Path_6" data-name="&lt;Compound Path&gt;" class="cls-3" d="M65,142.06a1.94,1.94,0,0,0,.75.55l.2.08a61.62,61.62,0,0,0,38.14,10.15c21.87-1.6,41.66-15.11,51.64-34.54.84-1.64-1.37-3.66-2.7-2.09l-.66.78c0-.13,0-.26-.06-.39-1.07-4.62-5.58-8.27-10.13-10.89,1.2-7.33,1.55-15-.22-22.06a.46.46,0,0,0-.9.12c-.49,7-.51,13.8-1.31,20.63-1.19-.6-2.34-1.12-3.38-1.56-10.23-4.35-22-5.21-33.68-4.43A99.21,99.21,0,0,0,101.44,80a.47.47,0,0,0-.57-.4l0-.08a.49.49,0,0,0-1,.13c0,.38,0,1.38.38,1.69-.38,5.72-.33,11.49-.3,17.26A187.41,187.41,0,0,0,78.3,102c-6.92,1.44-15.11,3.35-21.5,7.16a81.9,81.9,0,0,1-3-22.51c0-.75-1-.7-1.13,0a53.25,53.25,0,0,0,0,13l-.24-1a.25.25,0,0,0-.49.07A51.56,51.56,0,0,0,54,111l-.45.34c-3.71,3-5.82,7.66-4.46,11.92-.69-.35-1.65.31-1.14,1.12A59.42,59.42,0,0,0,65,142.06Zm12.06.06a1,1,0,0,0,.37-1,104,104,0,0,0,18.74,1.56l.72,0c-.09,1.4,2,2,2.26.52,0-.16,0-.31.06-.47a80.62,80.62,0,0,0,20.09-2.25,28.71,28.71,0,0,0,8.62-1.92l-.13.31a.66.66,0,0,0,0,.56,49.93,49.93,0,0,1-4.73,2.44,1.45,1.45,0,0,0-1-.21c-12.77,1.68-25.93,3.51-38.67,1.9Q80.17,142.94,77,142.12ZM131.79,137l-.87.58.18-.25Zm-58.2,3.36q.91.72,1.85,1.36c-3-.81-5.92-1.68-8.75-2.53a2,2,0,0,0-.58-.08q-2.4-1.57-4.66-3.34A49,49,0,0,0,73.58,140.33Z"/>
        <path id="_Compound_Path_7" data-name="&lt;Compound Path&gt;" class="cls-4" d="M141.49,113.38c2.2-8.38,4.64-18.88,2.05-27.54a163.59,163.59,0,0,1,18,5.94c.66.26.94-.8.29-1.06a140.93,140.93,0,0,0-18.77-6.26l0-.07a.22.22,0,0,0-.39,0q-3.42-.87-6.87-1.59a.6.6,0,0,0-.22-1c-15.93-6.53-33.29-6.94-50.22-4.72a43.14,43.14,0,0,0-5.39.8c-3.79.62-7.54,1.34-11.24,2.15-.24.05-.13.4.1.36,4.24-.66,8.5-1.29,12.78-1.82,4-.15,8.05-.62,12.08-.71q6.88-.16,13.75.33A145.24,145.24,0,0,1,132,82a168.56,168.56,0,0,0-32.34-2.57c0-.29,0-.58-.08-.86a.21.21,0,0,0-.42,0c0,.29,0,.58,0,.87a192.61,192.61,0,0,0-32.24,3.35c-4.83.91-9.85,1.89-14.76,3.17v-.05a.27.27,0,0,0-.52-.07c0,.09,0,.18,0,.27a79.39,79.39,0,0,0-11.1,3.74c-.33.14-.09.64.24.57,3.56-.79,7.08-1.76,10.6-2.73-1.35,9.51.39,19.66,3.89,28.49,3.61,9.12,9.54,18.4,17.54,24.28.29.22.64-.25.38-.5-7.44-7.23-13.55-14.92-17.27-24.73a66.31,66.31,0,0,1-3.83-27.75c3.91-1.07,7.82-2.13,11.8-2.94a198.45,198.45,0,0,1,23.94-3.37q5.65-.44,11.33-.54c-.19,10.1.16,20.19-.48,30.3-.69,10.81-2.28,21.43-3.44,32.18-.06.53.82.64.93.13,2.15-10.36,2.93-21.28,3.48-31.83.53-10.16,1.07-20.6.17-30.78A166.58,166.58,0,0,1,135.92,84q3.44.71,6.83,1.6a71.93,71.93,0,0,1,.45,13.22,86.7,86.7,0,0,1-2.71,14.26c-1.09,4.12-2.28,8.24-3.75,12.24a61.84,61.84,0,0,1-2.89,6.72c-1,2-2.29,3.77-3.23,5.76-.14.31.23.65.49.38,2.87-2.9,4.57-7.29,6-11A125.11,125.11,0,0,0,141.49,113.38ZM118.1,78.18c-1.38-.2-2.75-.38-4.14-.54Q116,77.86,118.1,78.18Z"/>
        <path id="_Path_33" data-name="&lt;Path&gt;" class="cls-4" d="M91.22,43.23l-.09.06c-.89.58.31,1.78.89.89l.06-.09A.63.63,0,0,0,91.22,43.23Z"/>
        <path id="_Path_34" data-name="&lt;Path&gt;" class="cls-4" d="M93.38,41.93a.27.27,0,0,0,.13.49,5,5,0,0,1,2.62.64c.78.5,1,1.38,1.69,1.92a.43.43,0,0,0,.71-.19c.42-1.13-.88-2.34-1.77-2.82A3.19,3.19,0,0,0,93.38,41.93Z"/>
        <path id="_Path_35" data-name="&lt;Path&gt;" class="cls-4" d="M116.58,44.41c-.46.15-.9.35-1.34.54s-.12.85.31.74.86-.21,1.29-.35a.48.48,0,0,0,.34-.34.41.41,0,0,0-.12-.47A.49.49,0,0,0,116.58,44.41Z"/>
        <path id="_Path_36" data-name="&lt;Path&gt;" class="cls-4" d="M119.57,47.78a1.39,1.39,0,0,0,.29.54.18.18,0,0,0,.3-.12,1.29,1.29,0,0,0-.09-.55C120,47.32,119.45,47.47,119.57,47.78Z"/>
        <path id="_Path_37" data-name="&lt;Path&gt;" class="cls-4" d="M111.44,33.65a38.32,38.32,0,0,1,15.11-4.05,42.46,42.46,0,0,1,8.43.78c-4.93,1.66-5.76,7.33-5.7,12,.1,6.86,1.17,15.09,5.16,20.84a.48.48,0,0,0,.87-.37c-1.49-8.61-9-25.6.82-31.57a.6.6,0,0,0,.25-.77,21.72,21.72,0,0,0,3.08.12.78.78,0,0,0,.39-1.45c-3.77-2.51-9.9-2.21-14.21-1.63a34,34,0,0,0-14.4,5.73A.2.2,0,0,0,111.44,33.65Z"/>
        <path id="_Path_38" data-name="&lt;Path&gt;" class="cls-4" d="M124.82,24.62c5.35-2.82,11.45-5.63,15.79-9.94.27-.26,0-.79-.38-.66-5.81,2-11.15,5.73-16.65,8.46C122.15,23.19,123.41,25.37,124.82,24.62Z"/>
        <path id="_Path_39" data-name="&lt;Path&gt;" class="cls-4" d="M103,19.76c1.88-1.6,3.12-4.27,4.25-6.44a26.9,26.9,0,0,0,2.67-7.18.35.35,0,0,0-.63-.27c-1.41,2.23-2.59,4.6-3.94,6.87-1.22,2.06-2.92,3.94-3.84,6.14C101.07,19.8,102.35,20.27,103,19.76Z"/>
        <path id="_Path_40" data-name="&lt;Path&gt;" class="cls-4" d="M77.64,15.88c.71-1.58.18-3.28.09-5-.11-2.11.12-4.23-.08-6.33,0-.23-.37-.39-.49-.13a16.56,16.56,0,0,0-1.31,6c-.14,1.87-.44,4,.76,5.55A.66.66,0,0,0,77.64,15.88Z"/>
        <path id="_Path_41" data-name="&lt;Path&gt;" class="cls-4" d="M72.32,65.94c5.54-7.79,9.11-18.79,9.71-28.27.31-4.89,0-14-4.56-17.61A37.38,37.38,0,0,1,91.82,25c4.5,2.48,8.87,5.77,14,6.87a.34.34,0,0,0,.26-.62c-5.86-3.64-11.86-8.07-18.14-10.91-4.67-2.12-10.16-3.38-15-1.31-.44.18-.19.86.23.86s1.07,0,1.6,0c5.77,6,5.67,15.54,4.16,23.35S73.41,58,71.62,65.64A.39.39,0,0,0,72.32,65.94Z"/>
        <path id="_Path_42" data-name="&lt;Path&gt;" class="cls-8" d="M60.1,48.42a4.17,4.17,0,0,0-3.69.06l-.35.09c-.44,0-.59.69-.11.82.32.08.47.35.77.49a4.67,4.67,0,0,0,1,.29,4.76,4.76,0,0,0,2.17,0A1,1,0,0,0,60.1,48.42Z"/>
        <path id="_Path_43" data-name="&lt;Path&gt;" class="cls-8" d="M148.91,51.52a2.57,2.57,0,0,0-.94.16,6.32,6.32,0,0,1-1,.22.51.51,0,0,0,0,1,8.19,8.19,0,0,1,.88.19,3.41,3.41,0,0,0,.93.19c.48,0,1.26-.29,1.26-.87S149.36,51.55,148.91,51.52Z"/>
        <path id="_Path_44" data-name="&lt;Path&gt;" class="cls-8" d="M47.6,37.83c-1.73,3.77-1.17,6.83,1.25,6.83s5.78-3.06,7.52-6.83S57.54,31,55.12,31,49.34,34.06,47.6,37.83Z"/>
        <path id="_Path_45" data-name="&lt;Path&gt;" class="cls-8" d="M136.41,43.23c-.13,3.16.74,5.71,2,5.71s2.3-2.56,2.43-5.71-.74-5.71-2-5.71S136.54,40.08,136.41,43.23Z"/>
        <ellipse class="cls-9" cx="60.87" cy="52.99" rx="3.54" ry="7.21"/>
        <ellipse class="cls-9" cx="146.01" cy="54.48" rx="3.54" ry="7.21"/>
        <path class="cls-9" d="M97,46.16a2.51,2.51,0,0,0-3-1.38A2.43,2.43,0,0,0,92.74,47a6.7,6.7,0,0,0,.6,2.59c.72,1.87,2.3,7,4.6,7.1.48-2-.28-4.8-.32-6.93A8,8,0,0,0,97,46.16Z"/>
        <path class="cls-9" d="M115.84,53.77a6,6,0,0,0,2-5.55,1.21,1.21,0,0,0-.57-.88,1.16,1.16,0,0,0-.77,0,6.28,6.28,0,0,0-3.2,2.63c-.62.86-3.54,4.84-2.95,6C111.2,57.46,115.09,54.47,115.84,53.77Z"/>
        <path class="cls-9" d="M93.05,55.79c-1.77-3.4-4.27-7-3.32-11.05,1.07-4.53,6.34-6.37,9.56-2.63.12.13.3-.06.19-.19a5.61,5.61,0,0,0-9.23.32c-2.91,4.47-.24,9.93,2.54,13.7A.15.15,0,0,0,93.05,55.79Z"/>
        <path class="cls-9" d="M113.27,45.49a4.59,4.59,0,0,1,5.48-2.27,5.56,5.56,0,0,1,3.65,5c.45,4.23-2.6,7-5.39,9.61a.15.15,0,0,0,.18.23c4.21-2.33,7.58-7.82,5.08-12.54-1.88-3.54-7.43-4.09-9.14-.09C113.08,45.51,113.22,45.6,113.27,45.49Z"/>
      </g>
    </g>
    <g id="stroke">
      <path id="Stroke-2" data-name="Stroke" d="M183.22,118.36A32.76,32.76,0,0,0,160.7,107a53.71,53.71,0,0,0,2.91-15.77,1,1,0,0,0-.46-1.49c-1.08-.5-2.16-1-3.25-1.44a12.88,12.88,0,0,0,.94-4.55,19.66,19.66,0,0,0-.26-6.23,43.06,43.06,0,0,0,.85-5.73c.64-7.2.87-14.83-1-21.88-2.21-8.26-8.78-16.43-17-18.24a1.24,1.24,0,0,0-.28-.94,16.54,16.54,0,0,0-2.76-2.74c1.55-4.1,3.07-10.91.52-14.67.2-.23-.06-.67-.37-.55l-.17.07a.47.47,0,0,0-.55.24c-6.35,2.71-12.29,6.58-18.23,10.07a57.53,57.53,0,0,0-7.46-2.71c.48-2.59-.42-5.64-1.07-8.11s-1.4-5.57-3.29-7.47a.34.34,0,0,0-.4-.34.31.31,0,0,0-.38.29s0,0,0,0c-1.86,2-3.13,4.71-4.73,6.95s-3.63,4.46-5.31,6.78a28.2,28.2,0,0,0-6.82,1.25c-2.35-2.56-5.42-4.49-7.7-7.22-2-2.36-3.35-5.15-5.14-7.62,0-.32.07-.65.12-1,0,0-.05-.06-.07,0-.07.26-.13.54-.19.81-.36-.49-.73-1-1.13-1.42a.35.35,0,0,0-.3-.1V3.17c0-.14-.17-.25-.25-.1-2.16,3.73-3.4,9-2.43,13.3a14,14,0,0,0-7.25,2.73c-9.31,2-17.68,9.45-22.73,17.79L45,37c-5.28,6.54-5.83,14.11-4.39,21.63l-.13-.15s-.08,0,0,0,.14.18.21.26a72.31,72.31,0,0,0,3.85,12.47c-.37,4.74.19,10.72,2.64,14.43q-3.91,1.24-7.69,2.7a.66.66,0,0,0-.16,1.18,55.86,55.86,0,0,0,2.16,18.93c-15.38,5-29.84,17.1-35.25,32.64-.83,2.39-.79,4.8,1.79,5.85,2.83,1.16,5-.86,6.67-2.89L16,142.47c4.27-1.46,8.37-3.12,12.88-3.93,5.48-1,10.75-.71,16.26-.38-.11,1-.22,2-.32,3.06-8.63.38-19.44,5-21.15,14.29-1,5.23,1.69,10,4.54,14.15,3.52,5.16,7.11,10.4,11,15.28-3.16.58-6.62,1.48-8.89,3.19-5.09,3.82,1.55,6.29,4.84,6.7,5.35.67,10.71,1.3,16.08,1.85,4.23.43,8.64.71,12.62-1.07,4.41-2,7.2-6.55,6-11,1.31.55,2.63,1.06,4,1.5,13.77,4.55,29.62,4.36,43.8,1.95a49.91,49.91,0,0,0,5.67-1.31c.8,4.86,8.07,5.31,12.25,5.89a119.69,119.69,0,0,0,28,.62c2.84-.27,13.41-.08,11.15-5.61-1.32-3.24-5.52-4.78-9.55-5.21a66.44,66.44,0,0,0,8.2-15.75c2.16-5.62,3.41-12,1.74-17.88-2.11-7.47-11-15.31-18.64-11.2q.55-3.47.86-6.94a26.52,26.52,0,0,1,16.21,2.87c3.51,1.91,6.32,4.8,9.53,7.08,2.24,3,5.17,4.89,9.88,4.31a1.3,1.3,0,0,0,1.25-1.25c.53-4.46-1.35-8.36-3.22-12.31A59.66,59.66,0,0,0,183.22,118.36Zm-14.35,4.06a10.09,10.09,0,0,1,3.86,1.89,1.62,1.62,0,0,1,.1.37c0,.09.13.05.14,0s0-.1,0-.14a15.08,15.08,0,0,1,2.66,2.95,20,20,0,0,0-8.71-5.26C167.5,122.25,168.18,122.32,168.88,122.42Zm-11.19-.07c.65-.11,1.31-.2,2-.26a18.87,18.87,0,0,1,18.13,9.57,28.21,28.21,0,0,0-11.14-5.37c-2.28-.52-6.46-1.49-9-.28Q157.68,124.17,157.68,122.35Zm-9.47,36.26A67.31,67.31,0,0,1,132,169.75a65.63,65.63,0,0,1-23,5.77A72.7,72.7,0,0,1,63.8,164a74.93,74.93,0,0,1-17-15.71q0-2,.17-4c.55-6.77,2-13.69,1.48-20.49.7,1.09,1.42,2.16,2.2,3.2C58,136.94,68.4,142.1,80.44,144a123.24,123.24,0,0,0,15.48,1.53.39.39,0,0,0,.53,0c11,.31,22-1,31.93-4.93a.35.35,0,0,0,.51-.06l.12-.18a54,54,0,0,0,20.9-14.79,57.79,57.79,0,0,0,5-6.8C154.58,132.25,153.1,146.05,148.21,158.61ZM34.14,127.91a40.16,40.16,0,0,0-5.42,1.92c4.86-3.08,10-4.95,15.6-3.33A20.56,20.56,0,0,0,34.14,127.91Zm9.74-20a79.53,79.53,0,0,1-3.07-18.53L52.4,86.8c-2.21,10,.12,21.58,4,30.79,3.37,8,8.83,16.31,15.84,22a39,39,0,0,1-12.73-6.74c-7.32-6-12.13-14.17-15.06-23.06A1.26,1.26,0,0,0,43.88,107.9ZM81.87,19c5.13,1.2,9.58,4.12,14.48,6,.5.19,1-.58.54-.92a35.28,35.28,0,0,0-3.7-2.59c4.71-.15,9.34-.65,14.13,0a52.5,52.5,0,0,1,16.42,5.27A44.3,44.3,0,0,0,117.2,30c-.35.21,0,.69.31.53,7.33-3.11,16.36-5.53,22.56.41-2.43-1.13-5.25-.13-7,2.18-3.07,4-1.8,10.71-1.19,15.34a.14.14,0,0,0-.2.16c.12.35.25.71.37,1.06,1.5,10.77,4.93,23.53,11.43,32.61-.81-.88-1.6-1.77-2.35-2.7a59.66,59.66,0,0,1-6.79-10.47,61.46,61.46,0,0,1-6.58-23.64c0-.08-.12-.08-.12,0a59.44,59.44,0,0,0,5.81,23.28A61.38,61.38,0,0,0,140,79.44c.57.74,1.17,1.55,1.82,2.37-12.36-5.07-25.86-6.9-39.22-6.49a166.76,166.76,0,0,0-25.55,3c-5.39,1-10.82,2.12-16.19,3.4a19,19,0,0,0,4.22-3.9,57.11,57.11,0,0,0,5.46-8,71.62,71.62,0,0,0,11.28-32c0-.06-.08-.06-.09,0a73.13,73.13,0,0,1-7.1,23.35,75.55,75.55,0,0,0,4.53-18.15c.84-6.94,2.62-22.15-6-24.07A20.09,20.09,0,0,1,81.87,19Zm52.2,6.19a15,15,0,0,0,5.1-7.52,9.84,9.84,0,0,1-4.87,7.56Zm19.59,60.54q-3.51-1.29-7.08-2.36c-3.18-7.09-6.93-13.57-9.44-20.87.48,1.05,1,2.11,1.45,3.15a82.2,82.2,0,0,0,4.4,8,15.1,15.1,0,0,0,4.4,5c7.44,4.69,11.08-5.12,12.41-13C159.72,73.26,158.21,81,153.66,85.78ZM102.9,142.87c-1.94,0-3.94.05-6,0,3.3-20.71,4.8-42.2,3-63.1l1,0a148.21,148.21,0,0,1,41.09,4.82c2,18.55-1.72,37-11.78,52.7C121.82,141.09,112.43,142.69,102.9,142.87Zm-27.49-2.36A62.67,62.67,0,0,1,66,131.83a58.91,58.91,0,0,1-13.32-30.4,72.67,72.67,0,0,1,0-14.71c15.47-3.41,30.81-6.47,46.87-6.9.27,10.77.51,21.48-.1,32.25a303.52,303.52,0,0,1-3.36,30.82A88.18,88.18,0,0,1,75.41,140.51Zm27.23-63.1a213.29,213.29,0,0,0-29.71,2.33q1.7-.36,3.41-.68A170.22,170.22,0,0,1,101.78,76c12.38-.45,25,1,36.6,5.24A150.73,150.73,0,0,0,102.64,77.42Zm-53.7-2c.17.15.34.31.52.46,4.65,3.57,9.88.19,13.45-3.22A52.76,52.76,0,0,0,71.5,61.91C66.6,72.83,56.42,89.47,48.94,75.39Zm95.25,52.7a49.38,49.38,0,0,1-12.79,8.69c9.48-15.3,13.91-34.27,11-52.09q1.35.37,2.68.76a12.77,12.77,0,0,0,3.08,2.26c.17.09.42-.1.29-.29a9.88,9.88,0,0,0-1.06-1.29,121.67,121.67,0,0,1,14,5.4C160.8,105.42,154.26,118.58,144.19,128.09Zm14.68-44.65c-.23,1.35-.74,2.68-.86,4-.64-.26-1.27-.53-1.91-.78a17.56,17.56,0,0,0,3-4.59C159,82.55,158.94,83,158.87,83.44Zm-.07-29.83a70.31,70.31,0,0,1,1,9.84,37.18,37.18,0,0,1-3.1,10.42c-1.09,2.33-2.54,5-5.4,5.28-3.2.27-5.48-2.35-7.1-4.75a81.54,81.54,0,0,1-6.57-12.16c-.64-1.41-1.25-2.84-1.84-4.27-1.26-5.07-4.54-20.91-.33-25.31C147.78,31,156.88,42.46,158.8,53.61ZM135,25.41c3-1.88,5.21-5.31,4.54-9a.1.1,0,0,0-.08-.08c0-.25.08-.51.11-.77,0,1.42.26,2.86.18,4.26a25.28,25.28,0,0,1-1.41,6.76A13.17,13.17,0,0,0,135,25.41Zm4.58-11.1a17.18,17.18,0,0,1-6.4,10.82,19.21,19.21,0,0,0-6.58.69,1.13,1.13,0,0,0-.42-.41c-.75-.42-1.53-.83-2.33-1.23C129.17,21.07,134.69,18,139.59,14.31Zm-27.46,5.57a50.26,50.26,0,0,0-5.55-1c2.94-1.81,3.69-5,3.6-8.32.26.8.51,1.6.7,2.4C111.41,15.19,111.44,17.66,112.14,19.88Zm-6.56-6.77a35.35,35.35,0,0,0,3.61-6.19A19.75,19.75,0,0,0,109.71,9c.32,3.79-.09,7.7-3.88,9.72h0a41.14,41.14,0,0,0-4.24-.25A47.74,47.74,0,0,0,105.58,13.11ZM85.86,18a32.56,32.56,0,0,0-3.26-1,15.76,15.76,0,0,1-2.53-4.58,16.41,16.41,0,0,1-.66-2.81,39.61,39.61,0,0,0,3,4.28A46,46,0,0,0,85.86,18Zm-9.11-7.82c.15-1.81.45-3.61.75-5.4a14.07,14.07,0,0,0,1.39,3.91,15.69,15.69,0,0,0,2.58,8.09,23.41,23.41,0,0,0-4.83-.47C76.8,14.25,76.58,12.2,76.75,10.16ZM67.94,21.28c14.51-3.84,9,24,6.39,33.13A52.51,52.51,0,0,1,64.25,70.16c-2.12,2.27-4.47,4.64-7.38,5.84-3.55,1.46-6.79.14-9-2.73-.68-1.46-1.31-3-1.88-4.52,0-.25,0-.5,0-.75a.52.52,0,0,0-.44-.49,79.51,79.51,0,0,1-2.34-8C41.37,51.68,42.58,45,46,37.85,51.3,30.15,58.83,23.69,67.94,21.28ZM47,78.61c-.21-.89-.38-1.78-.51-2.68,1.43,3,3.34,5.73,6.48,6.93a8,8,0,0,0,1.66.43c-1.25.34-2.5.68-3.75,1a.17.17,0,0,0-.12.21L49.19,85C48.63,82.86,47.55,80.81,47,78.61ZM10.23,138.1a54,54,0,0,1,32-27.36,58.89,58.89,0,0,0,4.18,9.6c.08,2,0,4.1-.1,6.16-7.4-2.73-14.11.3-20.39,4.72-1.14.6-2.27,1.25-3.39,2a35.54,35.54,0,0,0-7,5.78c-.3.33-.57.67-.85,1a51.4,51.4,0,0,1-4.38,3,7.09,7.09,0,0,1-1.58-1.24Q9.36,139.9,10.23,138.1Zm3.15,3.43c-.69,1.66-1.69,2.16-3,1.54a33.69,33.69,0,0,0,3.35-2Zm4.69-1.64a34.81,34.81,0,0,1,7.62-7.1,38.3,38.3,0,0,1,15.06-5.54h0a21.92,21.92,0,0,1,5.45.19c-.2,2.78-.53,5.58-.85,8.38C36.81,134.21,26.09,135.53,18.07,139.89Zm26.57,2.87c-.07.85-.13,1.7-.18,2.55l-.13-.17c-.07-.09-.22,0-.16.09l.27.42c-.29,6,.13,11.89,2.56,17.55.17.38.35.75.53,1.13a13.22,13.22,0,0,1-14.61,2.92,12.92,12.92,0,0,1-7.2-9.19C25.08,148.1,36.73,145.62,44.63,142.76Zm-4.94,44a57.82,57.82,0,0,1,15.94-1.83c.58,0,.56-.83,0-.89a52.31,52.31,0,0,0-13,.33l-1.1.17a.91.91,0,0,0-.07-.19c-2.52-4-5.43-7.8-8.2-11.65-2.53-3.51-5.67-7.2-6.91-11.44a13.44,13.44,0,0,0,6.38,6.43,13.71,13.71,0,0,0,15.08-2.86c3.91,7.92,10.68,14,18.48,18.07,2.19,6.74-9.29,10.35-14.3,10.82a29.86,29.86,0,0,1-4.15.09c-1.83-.22-3.65-.48-5.46-.71a42.82,42.82,0,0,1-8.71-2.9C34.2,187.64,37.25,187.44,39.69,186.78Zm-6.11,3.74a34.23,34.23,0,0,0,5.24,2.22l-2.75-.29C33.91,192.23,33.19,192.93,33.58,190.52ZM64,192.59a15.45,15.45,0,0,1-8.11,1.83c-1.24,0-2.49-.05-3.74-.15a28.28,28.28,0,0,0,4-.67c4.4-1.08,11.76-4.8,10.95-10C68.64,186.85,67.08,190.69,64,192.59Zm34.69-5.65c-17,.08-35.62-4-46.08-18.66-4.18-5.85-5.76-12.34-5.82-19.21,18.22,24.81,54.59,34,82.82,22.51a58.87,58.87,0,0,0,17.89-11.21,68.06,68.06,0,0,1-3.85,7.82C134.21,184.48,115.95,186.85,98.69,186.94Zm26.73-.86c1.12-.39,2.2-.83,3.26-1.3-.53,3,2,4.64,5.24,5.61C129.94,189.78,126.16,188.58,125.41,186.07Zm43.37,4.38q.84-.21,1.66-.46A4.3,4.3,0,0,1,168.79,190.46Zm-9.88-7.74c-.28.07-.31.55,0,.6,2.17.33,13.62,2,12,6a.36.36,0,0,0-.27-.06,147.35,147.35,0,0,1-16.24,2.14q-5.43.12-10.85-.25-2.68-.26-5.35-.69c-3.61-.58-9-1.23-9.09-5.85a37.85,37.85,0,0,0,18.26-17.87c1.79,4.32,11.88,3,15,1.81a19,19,0,0,0,10.93-10.75c-1.21,9-7.51,16-9.48,24.57A18.25,18.25,0,0,0,158.91,182.72Zm14.57-26.3c0,.28-.06.56-.1.84a19.09,19.09,0,0,1-16.72,12.05c-2.72.16-8-.13-9-3.31.09-.19.19-.37.28-.56A103.69,103.69,0,0,0,156.21,139C167.06,136.82,174.27,145.61,173.48,156.42Zm-16.07-27.19c.06-.81.11-1.62.15-2.42,3-1.7,8.42-.19,11.19.68a31.24,31.24,0,0,1,9.38,4.8c.2.38.39.76.57,1.15C172.48,128.87,164.05,126.57,157.42,129.23Zm34.1,13.38c-1.67,1-5.84-2.39-6.71-3.3-2.55-2.65-4-6.24-5.89-9.34-1.65-2.73-3.43-5-5.86-6.43,0-.07,0-.14,0-.22a.19.19,0,0,0-.14-.18,29.77,29.77,0,0,0-10.17-1.7,19.92,19.92,0,0,0-5.07.24c0-2.36-.11-4.7-.3-7v0a56,56,0,0,0,2.5-5.45c15.75,1,24.61,12.61,30.39,26.19C190.61,136.2,193,141.7,191.51,142.61Z"/>
    </g>
  </g>
</svg>
